<svg width="20" height="20" viewBox="0 0 20 20" fill="none" xmlns="http://www.w3.org/2000/svg">
<path d="M11.875 1.875C11.875 2.92969 11.0156 3.75 10 3.75C8.94531 3.75 8.125 2.92969 8.125 1.875C8.125 0.859375 8.94531 0 10 0C11.0156 0 11.875 0.859375 11.875 1.875ZM10 16.25C11.0156 16.25 11.875 17.1094 11.875 18.125C11.875 19.1797 11.0156 20 10 20C8.94531 20 8.125 19.1797 8.125 18.125C8.125 17.1094 8.94531 16.25 10 16.25ZM18.125 8.125C19.1406 8.125 20 8.98438 20 10C20 11.0547 19.1406 11.875 18.125 11.875C17.0703 11.875 16.25 11.0547 16.25 10C16.25 8.98438 17.0703 8.125 18.125 8.125ZM3.75 10C3.75 11.0547 2.89062 11.875 1.875 11.875C0.820312 11.875 0 11.0547 0 10C0 8.98438 0.820312 8.125 1.875 8.125C2.89062 8.125 3.75 8.98438 3.75 10ZM4.21875 13.9062C5.27344 13.9062 6.09375 14.7266 6.09375 15.7812C6.09375 16.7969 5.27344 17.6562 4.21875 17.6562C3.20312 17.6562 2.34375 16.7969 2.34375 15.7812C2.34375 14.7266 3.20312 13.9062 4.21875 13.9062ZM15.7422 13.9062C16.7578 13.9062 17.6172 14.7266 17.6172 15.7812C17.6172 16.7969 16.7578 17.6562 15.7422 17.6562C14.6875 17.6562 13.8672 16.7969 13.8672 15.7812C13.8672 14.7266 14.6875 13.9062 15.7422 13.9062ZM4.21875 2.38281C5.27344 2.38281 6.09375 3.24219 6.09375 4.25781C6.09375 5.3125 5.27344 6.13281 4.21875 6.13281C3.20312 6.13281 2.34375 5.3125 2.34375 4.25781C2.34375 3.24219 3.20312 2.38281 4.21875 2.38281Z" fill="#4ADE80"/>
</svg>
