<svg width="18" height="19" viewBox="0 0 18 19" fill="none" xmlns="http://www.w3.org/2000/svg">
<path d="M8.75 9.75V11.75V13.75" stroke="#001A72" stroke-width="1.5" stroke-linecap="round" stroke-linejoin="round"/>
<path d="M0.75 9.75V15.75C0.75 16.8546 1.64543 17.75 2.75 17.75H14.75C15.8546 17.75 16.75 16.8546 16.75 15.75V9.75" stroke="#001A72" stroke-width="1.5" stroke-linecap="round" stroke-linejoin="round"/>
<path d="M14.75 3.75H2.75C1.64543 3.75 0.75 4.64543 0.75 5.75V9.75C0.75 10.8546 1.64543 11.75 2.75 11.75H8.75H14.75C15.8546 11.75 16.75 10.8546 16.75 9.75V5.75C16.75 4.64543 15.8546 3.75 14.75 3.75Z" stroke="#001A72" stroke-width="1.5" stroke-linecap="round" stroke-linejoin="round"/>
<path d="M11.75 3.75V2.75C11.75 1.64543 10.8546 0.75 9.75 0.75H7.75C6.64543 0.75 5.75 1.64543 5.75 2.75V3.75" stroke="#001A72" stroke-width="1.5" stroke-linecap="round" stroke-linejoin="round"/>
</svg>
