<svg width="18" height="19" viewBox="0 0 18 19" fill="none" xmlns="http://www.w3.org/2000/svg">
<path d="M16.396 15.5839L15.7293 7.58391C15.6429 6.54732 14.7764 5.75 13.7362 5.75H12.5765H4.57654H3.41681C2.37663 5.75 1.5101 6.54732 1.42372 7.58391L0.757047 15.5839C0.659877 16.7499 1.58006 17.75 2.75014 17.75H14.4029C15.573 17.75 16.4932 16.7499 16.396 15.5839Z" stroke="#001A72" stroke-width="1.5" stroke-linecap="round" stroke-linejoin="round"/>
<path d="M12.5764 9.75V5.75V4.75C12.5764 3.68913 12.155 2.67172 11.4048 1.92157C10.6547 1.17143 9.63732 0.75 8.57642 0.75C7.51552 0.75 6.49814 1.17143 5.74799 1.92157C4.99785 2.67172 4.57642 3.68913 4.57642 4.75V5.75V9.75" stroke="#001A72" stroke-width="1.5" stroke-linecap="round" stroke-linejoin="round"/>
</svg>
