<svg width="14" height="14" viewBox="0 0 14 14" fill="none" xmlns="http://www.w3.org/2000/svg">
<path d="M6.78125 0C10.5 0 13.5625 3.0625 13.5625 6.78125C13.5625 10.5273 10.5 13.5625 6.78125 13.5625C3.03516 13.5625 0 10.5273 0 6.78125C0 3.0625 3.03516 0 6.78125 0ZM10.3359 3.22656C8.53125 1.44922 5.79688 1.3125 3.88281 2.67969L10.8828 9.67969C12.25 7.76562 12.1133 5.03125 10.3359 3.22656ZM3.19922 10.3633C5.00391 12.1406 7.73828 12.2773 9.65234 10.9102L2.65234 3.91016C1.28516 5.82422 1.42188 8.55859 3.19922 10.3633Z" fill="white"/>
</svg>
