<svg width="20" height="16" viewBox="0 0 20 16" fill="none" xmlns="http://www.w3.org/2000/svg">
<path d="M18.75 12.75V4.75C18.75 3.64543 17.8546 2.75 16.75 2.75H14.25C13.6977 2.75 13.25 2.30228 13.25 1.75C13.25 1.19772 12.8023 0.75 12.25 0.75H7.25C6.69772 0.75 6.25 1.19772 6.25 1.75C6.25 2.30228 5.80228 2.75 5.25 2.75H2.75C1.64543 2.75 0.75 3.64543 0.75 4.75V12.75C0.75 13.8546 1.64543 14.75 2.75 14.75H16.75C17.8546 14.75 18.75 13.8546 18.75 12.75Z" stroke="#001A72" stroke-width="1.5"/>
<path d="M12 8.75C12 9.9926 10.9926 11 9.75 11V12.5C11.8211 12.5 13.5 10.8211 13.5 8.75H12ZM9.75 11C8.5074 11 7.5 9.9926 7.5 8.75H6C6 10.8211 7.67893 12.5 9.75 12.5V11ZM7.5 8.75C7.5 7.5074 8.5074 6.5 9.75 6.5V5C7.67893 5 6 6.6789 6 8.75H7.5ZM9.75 6.5C10.9926 6.5 12 7.5074 12 8.75H13.5C13.5 6.6789 11.8211 5 9.75 5V6.5Z" fill="#001A72"/>
</svg>
