<svg width="16" height="16" viewBox="0 0 16 16" fill="none" xmlns="http://www.w3.org/2000/svg">
<path d="M6 2H2.66667C2.29848 2 2 2.29848 2 2.66667V6C2 6.36819 2.29848 6.66667 2.66667 6.66667H6C6.36819 6.66667 6.66667 6.36819 6.66667 6V2.66667C6.66667 2.29848 6.36819 2 6 2Z" stroke="#9CA3AF" stroke-width="1.33333"/>
<path d="M13.3334 2H10C9.63185 2 9.33337 2.29848 9.33337 2.66667V6C9.33337 6.36819 9.63185 6.66667 10 6.66667H13.3334C13.7016 6.66667 14 6.36819 14 6V2.66667C14 2.29848 13.7016 2 13.3334 2Z" stroke="#9CA3AF" stroke-width="1.33333"/>
<path d="M6 9.33301H2.66667C2.29848 9.33301 2 9.63148 2 9.99967V13.333C2 13.7012 2.29848 13.9997 2.66667 13.9997H6C6.36819 13.9997 6.66667 13.7012 6.66667 13.333V9.99967C6.66667 9.63148 6.36819 9.33301 6 9.33301Z" stroke="#9CA3AF" stroke-width="1.33333"/>
<path d="M13.3334 9.33301H10C9.63185 9.33301 9.33337 9.63148 9.33337 9.99967V13.333C9.33337 13.7012 9.63185 13.9997 10 13.9997H13.3334C13.7016 13.9997 14 13.7012 14 13.333V9.99967C14 9.63148 13.7016 9.33301 13.3334 9.33301Z" stroke="#9CA3AF" stroke-width="1.33333"/>
</svg>
