<svg width="31" height="34" viewBox="0 0 31 34" fill="none" xmlns="http://www.w3.org/2000/svg">
<path d="M21.75 33.125C26.0993 33.125 29.625 29.5993 29.625 25.25C29.625 20.9007 26.0993 17.375 21.75 17.375C17.4007 17.375 13.875 20.9007 13.875 25.25C13.875 29.5993 17.4007 33.125 21.75 33.125Z" stroke="white" stroke-width="1.5" stroke-linecap="round" stroke-linejoin="round"/>
<path d="M21.75 22.1V25.0531L23.325 26.825" stroke="white" stroke-width="1.5" stroke-linecap="round" stroke-linejoin="round"/>
<path d="M0.75 14.75H9.5" stroke="white" stroke-width="1.5" stroke-linecap="round" stroke-linejoin="round"/>
<path d="M28.75 11.25V7.75C28.75 5.817 27.183 4.25 25.25 4.25H4.25C2.317 4.25 0.75 5.817 0.75 7.75V28.75C0.75 30.683 2.317 32.25 4.25 32.25H9.5" stroke="white" stroke-width="1.5" stroke-linecap="round" stroke-linejoin="round"/>
<path d="M20 0.75V7.75" stroke="white" stroke-width="1.5" stroke-linecap="round" stroke-linejoin="round"/>
<path d="M9.5 0.75V7.75" stroke="white" stroke-width="1.5" stroke-linecap="round" stroke-linejoin="round"/>
</svg>
