<svg width="14" height="15" viewBox="0 0 14 15" fill="none" xmlns="http://www.w3.org/2000/svg">
<path d="M9.32422 2.73438C10.4453 2.73438 11.5938 2.29688 12.5234 1.85938C13.0977 1.61328 13.7812 2.02344 13.7812 2.65234V9.32422C13.7812 9.59766 13.6172 9.87109 13.3984 10.0352C12.4141 10.6914 11.3477 11.1562 10.0352 11.1562C8.20312 11.1562 7 10.1992 5.52344 10.1992C4.12891 10.1992 3.17188 10.4727 2.40625 10.8008V13.3711C2.40625 13.7539 2.10547 14.0273 1.75 14.0273H1.3125C0.929688 14.0273 0.65625 13.7539 0.65625 13.3711V2.81641C0.246094 2.54297 0 2.10547 0 1.55859C0 0.710938 0.710938 0 1.58594 0.0546875C2.35156 0.0820312 3.00781 0.710938 3.03516 1.47656C3.03516 1.50391 3.03516 1.53125 3.03516 1.58594C3.03516 1.77734 3.00781 1.94141 2.95312 2.13281C3.52734 1.91406 4.12891 1.77734 4.8125 1.77734C6.64453 1.77734 7.84766 2.73438 9.32422 2.73438Z" fill="white"/>
</svg>
