<svg width="16" height="16" viewBox="0 0 16 16" fill="none" xmlns="http://www.w3.org/2000/svg">
<path d="M6 2H2.66667C2.29848 2 2 2.29848 2 2.66667V6C2 6.36819 2.29848 6.66667 2.66667 6.66667H6C6.36819 6.66667 6.66667 6.36819 6.66667 6V2.66667C6.66667 2.29848 6.36819 2 6 2Z" stroke="white" stroke-width="1.33333"/>
<path d="M13.333 2H9.99967C9.63148 2 9.33301 2.29848 9.33301 2.66667V6C9.33301 6.36819 9.63148 6.66667 9.99967 6.66667H13.333C13.7012 6.66667 13.9997 6.36819 13.9997 6V2.66667C13.9997 2.29848 13.7012 2 13.333 2Z" stroke="white" stroke-width="1.33333"/>
<path d="M6 9.33398H2.66667C2.29848 9.33398 2 9.63246 2 10.0007V13.334C2 13.7022 2.29848 14.0007 2.66667 14.0007H6C6.36819 14.0007 6.66667 13.7022 6.66667 13.334V10.0007C6.66667 9.63246 6.36819 9.33398 6 9.33398Z" stroke="white" stroke-width="1.33333"/>
<path d="M13.333 9.33398H9.99967C9.63148 9.33398 9.33301 9.63246 9.33301 10.0007V13.334C9.33301 13.7022 9.63148 14.0007 9.99967 14.0007H13.333C13.7012 14.0007 13.9997 13.7022 13.9997 13.334V10.0007C13.9997 9.63246 13.7012 9.33398 13.333 9.33398Z" stroke="white" stroke-width="1.33333"/>
</svg>
