<svg width="46" height="36" viewBox="0 0 46 36" fill="none" xmlns="http://www.w3.org/2000/svg">
<path d="M18.2109 23.625C18.2109 26.7891 14.1328 29.25 9.21094 29.25C4.21875 29.25 0.210938 26.7891 0.210938 23.625C0.210938 22.5703 0 23.1328 6.1875 10.8984C7.38281 8.4375 10.9688 8.4375 12.1641 10.8984C18.2812 23.0625 18.1406 22.5 18.1406 23.625H18.2109ZM9.21094 12.375L4.14844 22.5H14.2734L9.21094 12.375ZM45.1406 23.625H45.2109C45.2109 26.7891 41.1328 29.25 36.2109 29.25C31.2188 29.25 27.2109 26.7891 27.2109 23.625C27.2109 22.5703 27 23.1328 33.1875 10.8984C34.3828 8.4375 37.9688 8.4375 39.1641 10.8984C45.2812 23.0625 45.1406 22.5 45.1406 23.625ZM31.1484 22.5H41.2734L36.2109 12.375L31.1484 22.5ZM37.3359 31.5C37.8984 31.5 38.4609 32.0625 38.4609 32.625V34.875C38.4609 35.5078 37.8984 36 37.3359 36H8.08594C7.45312 36 6.96094 35.5078 6.96094 34.875V32.625C6.96094 32.0625 7.45312 31.5 8.08594 31.5H20.4609V10.8281C18.7734 10.0547 17.5078 8.57812 17.1562 6.75H8.08594C7.45312 6.75 6.96094 6.25781 6.96094 5.625V3.375C6.96094 2.8125 7.45312 2.25 8.08594 2.25H18.2109C19.1953 0.914062 20.8125 0 22.7109 0C24.5391 0 26.1562 0.914062 27.1406 2.25H37.3359C37.8984 2.25 38.4609 2.8125 38.4609 3.375V5.625C38.4609 6.25781 37.8984 6.75 37.3359 6.75H28.1953C27.8438 8.57812 26.5781 10.0547 24.9609 10.8281V31.5H37.3359Z" fill="white"/>
</svg>
