<svg width="20" height="20" viewBox="0 0 20 20" fill="none" xmlns="http://www.w3.org/2000/svg">
<path d="M9.75 18.75C14.7206 18.75 18.75 14.7206 18.75 9.75C18.75 4.77944 14.7206 0.75 9.75 0.75C4.77944 0.75 0.75 4.77944 0.75 9.75C0.75 14.7206 4.77944 18.75 9.75 18.75Z" stroke="white" stroke-width="1.5" stroke-linecap="round" stroke-linejoin="round"/>
<path d="M6.75 13.75H9.75H10.75C11.4167 13.75 12.75 13.35 12.75 11.75C12.75 10.15 11.4167 9.75 10.75 9.75H8.75C8.0833 9.75 6.75 9.35 6.75 7.75C6.75 6.15 8.0833 5.75 8.75 5.75H9.75H12.75" stroke="white" stroke-width="1.5" stroke-linecap="round" stroke-linejoin="round"/>
<path d="M9.75 13.75V15.75" stroke="white" stroke-width="1.5" stroke-linecap="round" stroke-linejoin="round"/>
<path d="M9.75 5.75V3.75" stroke="white" stroke-width="1.5" stroke-linecap="round" stroke-linejoin="round"/>
</svg>
