<svg width="18" height="19" viewBox="0 0 18 19" fill="none" xmlns="http://www.w3.org/2000/svg">
<path d="M5.75 15.25V3.75L16.75 0.75V14.25" stroke="#001A72" stroke-width="1.5" stroke-linecap="round" stroke-linejoin="round"/>
<path d="M3.25 17.75C4.63071 17.75 5.75 16.6307 5.75 15.25C5.75 13.8693 4.63071 12.75 3.25 12.75C1.86929 12.75 0.75 13.8693 0.75 15.25C0.75 16.6307 1.86929 17.75 3.25 17.75Z" stroke="#001A72" stroke-width="1.5" stroke-linecap="round" stroke-linejoin="round"/>
<path d="M14.25 16.75C15.6307 16.75 16.75 15.6307 16.75 14.25C16.75 12.8693 15.6307 11.75 14.25 11.75C12.8693 11.75 11.75 12.8693 11.75 14.25C11.75 15.6307 12.8693 16.75 14.25 16.75Z" stroke="#001A72" stroke-width="1.5" stroke-linecap="round" stroke-linejoin="round"/>
</svg>
