<svg width="18" height="20" viewBox="0 0 18 20" fill="none" xmlns="http://www.w3.org/2000/svg">
<path d="M8.75 10C5.97656 10 3.75 7.77344 3.75 5C3.75 2.26562 5.97656 0 8.75 0C11.4844 0 13.75 2.26562 13.75 5C13.75 7.77344 11.4844 10 8.75 10ZM12.4609 11.2891C15.2734 11.4062 17.5 13.7109 17.5 16.5234V18.125C17.5 19.1797 16.6406 20 15.625 20H1.875C0.820312 20 0 19.1797 0 18.125V16.5234C0 13.7109 2.1875 11.4062 5 11.2891L6.875 18.75L8.125 13.4375L6.875 11.25H10.625L9.375 13.4375L10.625 18.75L12.4609 11.2891Z" fill="#0072FF"/>
</svg>
