<svg width="20" height="18" viewBox="0 0 20 18" fill="none" xmlns="http://www.w3.org/2000/svg">
<path d="M12.5 11.875V10H20V15.625C20 16.6406 19.1016 17.5 18.125 17.5H1.875C0.859375 17.5 0 16.6406 0 15.625V10H7.5V11.875C7.5 12.2266 7.77344 12.5 8.125 12.5H11.875C12.1875 12.5 12.5 12.2266 12.5 11.875ZM18.125 3.75C19.1016 3.75 20 4.64844 20 5.625V8.75H0V5.625C0 4.64844 0.859375 3.75 1.875 3.75H5V1.875C5 0.898438 5.85938 0 6.875 0H13.125C14.1016 0 15 0.898438 15 1.875V3.75H18.125ZM12.5 3.75V2.5H7.5V3.75H12.5Z" fill="#C084FC"/>
</svg>
