<svg width="16" height="18" viewBox="0 0 16 18" fill="none" xmlns="http://www.w3.org/2000/svg">
<path d="M15.3281 16.875C15.5391 16.875 15.75 17.0859 15.75 17.2969V18H0V17.2969C0 17.0859 0.175781 16.875 0.421875 16.875H1.125V0.84375C1.125 0.386719 1.47656 0 1.96875 0H13.7812C14.2383 0 14.625 0.386719 14.625 0.84375V16.875H15.3281ZM4.5 2.67188V4.07812C4.5 4.32422 4.67578 4.5 4.92188 4.5H6.32812C6.53906 4.5 6.75 4.32422 6.75 4.07812V2.67188C6.75 2.46094 6.53906 2.25 6.32812 2.25H4.92188C4.67578 2.25 4.5 2.46094 4.5 2.67188ZM4.5 6.04688V7.45312C4.5 7.69922 4.67578 7.875 4.92188 7.875H6.32812C6.53906 7.875 6.75 7.69922 6.75 7.45312V6.04688C6.75 5.83594 6.53906 5.625 6.32812 5.625H4.92188C4.67578 5.625 4.5 5.83594 4.5 6.04688ZM6.32812 11.25C6.53906 11.25 6.75 11.0742 6.75 10.8281V9.42188C6.75 9.21094 6.53906 9 6.32812 9H4.92188C4.67578 9 4.5 9.21094 4.5 9.42188V10.8281C4.5 11.0742 4.67578 11.25 4.92188 11.25H6.32812ZM9 16.875V13.9219C9 13.7109 8.78906 13.5 8.57812 13.5H7.17188C6.92578 13.5 6.75 13.7109 6.75 13.9219V16.875H9ZM11.25 10.8281V9.42188C11.25 9.21094 11.0391 9 10.8281 9H9.42188C9.17578 9 9 9.21094 9 9.42188V10.8281C9 11.0742 9.17578 11.25 9.42188 11.25H10.8281C11.0391 11.25 11.25 11.0742 11.25 10.8281ZM11.25 7.45312V6.04688C11.25 5.83594 11.0391 5.625 10.8281 5.625H9.42188C9.17578 5.625 9 5.83594 9 6.04688V7.45312C9 7.69922 9.17578 7.875 9.42188 7.875H10.8281C11.0391 7.875 11.25 7.69922 11.25 7.45312ZM11.25 4.07812V2.67188C11.25 2.46094 11.0391 2.25 10.8281 2.25H9.42188C9.17578 2.25 9 2.46094 9 2.67188V4.07812C9 4.32422 9.17578 4.5 9.42188 4.5H10.8281C11.0391 4.5 11.25 4.32422 11.25 4.07812Z" fill="white"/>
</svg>
