<svg width="10" height="15" viewBox="0 0 10 15" fill="none" xmlns="http://www.w3.org/2000/svg">
<path d="M3.88798 13.2842C3.11998 13.2602 2.45398 13.1882 1.88998 13.0682C1.32598 12.9362 0.791983 12.7622 0.287982 12.5462V9.79218C0.851982 10.0442 1.45198 10.2482 2.08798 10.4042C2.73598 10.5482 3.33598 10.6442 3.88798 10.6922V8.47818C3.33598 8.31018 2.81998 8.12418 2.33998 7.92018C1.87198 7.71618 1.45798 7.47018 1.09798 7.18218C0.749982 6.89418 0.479982 6.54618 0.287982 6.13818C0.0959824 5.71818 -1.75685e-05 5.22018 -1.75685e-05 4.64418C-1.75685e-05 3.91218 0.161982 3.30618 0.485982 2.82617C0.809983 2.34618 1.25998 1.97418 1.83598 1.71018C2.42398 1.44618 3.10798 1.29018 3.88798 1.24217V0.00017488H5.54398V1.22418C6.27598 1.26018 6.94198 1.35618 7.54198 1.51217C8.14198 1.66817 8.68198 1.84818 9.16198 2.05218L8.38798 4.46418C7.94398 4.27218 7.47598 4.12218 6.98398 4.01418C6.50398 3.89418 6.02398 3.81018 5.54398 3.76218V5.94018C6.38398 6.19218 7.09798 6.46218 7.68598 6.75018C8.27398 7.02618 8.72398 7.38618 9.03598 7.83018C9.34798 8.26218 9.50398 8.83218 9.50398 9.54018C9.50398 10.5122 9.18598 11.3402 8.54998 12.0242C7.91398 12.6962 6.91198 13.1042 5.54398 13.2482V14.7242H3.88798V13.2842ZM5.54398 10.6562C5.89198 10.5962 6.14998 10.5002 6.31798 10.3682C6.48598 10.2362 6.56998 10.0562 6.56998 9.82818C6.56998 9.67218 6.53998 9.54018 6.47998 9.43218C6.41998 9.32418 6.31198 9.22818 6.15598 9.14418C6.01198 9.06018 5.80798 8.97618 5.54398 8.89218V10.6562ZM3.88798 3.78018C3.67198 3.79218 3.49198 3.83418 3.34798 3.90618C3.20398 3.96617 3.08998 4.05017 3.00598 4.15817C2.93398 4.25418 2.89798 4.37418 2.89798 4.51818C2.89798 4.66218 2.92798 4.79418 2.98798 4.91418C3.05998 5.02218 3.16798 5.11818 3.31198 5.20218C3.45598 5.28618 3.64798 5.37018 3.88798 5.45418V3.78018Z" fill="white"/>
</svg>
