<svg width="18" height="18" viewBox="0 0 18 18" fill="none" xmlns="http://www.w3.org/2000/svg">
<path d="M1.21094 10.1562L0.351562 9.29688C0 8.90625 0 8.32031 0.351562 7.96875L7.96875 0.351562C8.32031 0 8.90625 0 9.25781 0.351562L16.875 7.96875C17.2266 8.32031 17.2266 8.90625 16.875 9.29688L16.0156 10.1562C15.625 10.5078 15.0391 10.5078 14.6484 10.1172L10.1953 5.42969V16.6406C10.1953 17.1875 9.76562 17.5781 9.25781 17.5781H8.00781C7.46094 17.5781 7.07031 17.1875 7.07031 16.6406V5.42969L2.57812 10.1562C2.1875 10.5078 1.60156 10.5469 1.21094 10.1562Z" fill="#4ADE80"/>
</svg>
