<svg version="1.1" xmlns="http://www.w3.org/2000/svg" xmlns:xlink="http://www.w3.org/1999/xlink" width="909" height="932"><defs/><g><g><rect fill="#C0C0C0" stroke="none" x="847" y="231" width="195.919921875" height="176" transform="matrix(1 0 0 1 -622 -134)" fill-opacity="0.2"/></g><g><rect fill="#ffffff" stroke="none" x="840" y="224" width="195.919921875" height="176" transform="matrix(1 0 0 1 -622 -134)"/></g><g><path fill="none" stroke="#000000" paint-order="fill stroke markers" d=" M 218 90 L 413.919921875 90 L 413.919921875 266 L 218 266 L 218 90 Z Z" stroke-miterlimit="10" stroke-dasharray=""/></g><g><path fill="none" stroke="#000000" paint-order="fill stroke markers" d=" M 218 115 L 413.919921875 115" stroke-miterlimit="10" stroke-dasharray=""/></g><g><path fill="none" stroke="#000000" paint-order="fill stroke markers" d=" M 218 213 L 413.919921875 213" stroke-miterlimit="10" stroke-dasharray=""/></g><g><g><path fill="none" stroke="none"/><text fill="#000000" stroke="none" font-family="Arial" font-size="13px" font-style="normal" font-weight="bold" text-decoration="undefined" x="938.4599609375" y="237.5" text-anchor="middle" dominant-baseline="central" transform="matrix(1 0 0 1 -622 -134)">User</text></g></g><g><g><path fill="none" stroke="none"/><text fill="#000000" stroke="none" font-family="Arial" font-size="13px" font-style="normal" font-weight="normal" text-decoration="undefined" x="845" y="260.5" text-anchor="start" dominant-baseline="central" transform="matrix(1 0 0 1 -622 -134)">-id: int</text></g></g><g><g><path fill="none" stroke="none"/><text fill="#000000" stroke="none" font-family="Arial" font-size="13px" font-style="normal" font-weight="normal" text-decoration="undefined" x="845" y="275.5" text-anchor="start" dominant-baseline="central" transform="matrix(1 0 0 1 -622 -134)">-name: string</text></g></g><g><g><path fill="none" stroke="none"/><text fill="#000000" stroke="none" font-family="Arial" font-size="13px" font-style="normal" font-weight="normal" text-decoration="undefined" x="845" y="290.5" text-anchor="start" dominant-baseline="central" transform="matrix(1 0 0 1 -622 -134)">-email: string</text></g></g><g><g><path fill="none" stroke="none"/><text fill="#000000" stroke="none" font-family="Arial" font-size="13px" font-style="normal" font-weight="normal" text-decoration="undefined" x="845" y="305.5" text-anchor="start" dominant-baseline="central" transform="matrix(1 0 0 1 -622 -134)">-password: string</text></g></g><g><g><path fill="none" stroke="none"/><text fill="#000000" stroke="none" font-family="Arial" font-size="13px" font-style="normal" font-weight="normal" text-decoration="undefined" x="845" y="320.5" text-anchor="start" dominant-baseline="central" transform="matrix(1 0 0 1 -622 -134)">-role: RoleType</text></g></g><g><g><path fill="none" stroke="none"/><text fill="#000000" stroke="none" font-family="Arial" font-size="13px" font-style="normal" font-weight="normal" text-decoration="undefined" x="845" y="335.5" text-anchor="start" dominant-baseline="central" transform="matrix(1 0 0 1 -622 -134)">-isBanned: boolean</text></g></g><g><g><path fill="none" stroke="none"/><text fill="#000000" stroke="none" font-family="Arial" font-size="13px" font-style="normal" font-weight="normal" text-decoration="undefined" x="845" y="358.5" text-anchor="start" dominant-baseline="central" transform="matrix(1 0 0 1 -622 -134)">+login()</text></g></g><g><g><path fill="none" stroke="none"/><text fill="#000000" stroke="none" font-family="Arial" font-size="13px" font-style="normal" font-weight="normal" text-decoration="undefined" x="845" y="373.5" text-anchor="start" dominant-baseline="central" transform="matrix(1 0 0 1 -622 -134)">+logout()</text></g></g><g><g><path fill="none" stroke="none"/><text fill="#000000" stroke="none" font-family="Arial" font-size="13px" font-style="normal" font-weight="normal" text-decoration="undefined" x="845" y="388.5" text-anchor="start" dominant-baseline="central" transform="matrix(1 0 0 1 -622 -134)">+register()</text></g></g><g><rect fill="#C0C0C0" stroke="none" x="775" y="463" width="51.919921875" height="45" transform="matrix(1 0 0 1 -622 -134)" fill-opacity="0.2"/></g><g><rect fill="#ffffff" stroke="none" x="768" y="456" width="51.919921875" height="45" transform="matrix(1 0 0 1 -622 -134)"/></g><g><path fill="none" stroke="#000000" paint-order="fill stroke markers" d=" M 146 322 L 197.919921875 322 L 197.919921875 367 L 146 367 L 146 322 Z Z" stroke-miterlimit="10" stroke-dasharray=""/></g><g><path fill="none" stroke="#000000" paint-order="fill stroke markers" d=" M 146 347 L 197.919921875 347" stroke-miterlimit="10" stroke-dasharray=""/></g><g><path fill="none" stroke="#000000" paint-order="fill stroke markers" d=" M 146 357 L 197.919921875 357" stroke-miterlimit="10" stroke-dasharray=""/></g><g><g><path fill="none" stroke="none"/><text fill="#000000" stroke="none" font-family="Arial" font-size="13px" font-style="normal" font-weight="bold" text-decoration="undefined" x="794.4599609375" y="469.5" text-anchor="middle" dominant-baseline="central" transform="matrix(1 0 0 1 -622 -134)">admin</text></g></g><g><rect fill="#C0C0C0" stroke="none" x="903" y="471" width="70.68359375" height="45" transform="matrix(1 0 0 1 -622 -134)" fill-opacity="0.2"/></g><g><rect fill="#ffffff" stroke="none" x="896" y="464" width="70.68359375" height="45" transform="matrix(1 0 0 1 -622 -134)"/></g><g><path fill="none" stroke="#000000" paint-order="fill stroke markers" d=" M 274 330 L 344.68359375 330 L 344.68359375 375 L 274 375 L 274 330 Z Z" stroke-miterlimit="10" stroke-dasharray=""/></g><g><path fill="none" stroke="#000000" paint-order="fill stroke markers" d=" M 274 355 L 344.68359375 355" stroke-miterlimit="10" stroke-dasharray=""/></g><g><path fill="none" stroke="#000000" paint-order="fill stroke markers" d=" M 274 365 L 344.68359375 365" stroke-miterlimit="10" stroke-dasharray=""/></g><g><g><path fill="none" stroke="none"/><text fill="#000000" stroke="none" font-family="Arial" font-size="13px" font-style="normal" font-weight="bold" text-decoration="undefined" x="931.841796875" y="477.5" text-anchor="middle" dominant-baseline="central" transform="matrix(1 0 0 1 -622 -134)">Organizer</text></g></g><g><rect fill="#C0C0C0" stroke="none" x="1031" y="463" width="62.74267578125" height="45" transform="matrix(1 0 0 1 -622 -134)" fill-opacity="0.2"/></g><g><rect fill="#ffffff" stroke="none" x="1024" y="456" width="62.74267578125" height="45" transform="matrix(1 0 0 1 -622 -134)"/></g><g><path fill="none" stroke="#000000" paint-order="fill stroke markers" d=" M 402 322 L 464.74267578125 322 L 464.74267578125 367 L 402 367 L 402 322 Z Z" stroke-miterlimit="10" stroke-dasharray=""/></g><g><path fill="none" stroke="#000000" paint-order="fill stroke markers" d=" M 402 347 L 464.74267578125 347" stroke-miterlimit="10" stroke-dasharray=""/></g><g><path fill="none" stroke="#000000" paint-order="fill stroke markers" d=" M 402 357 L 464.74267578125 357" stroke-miterlimit="10" stroke-dasharray=""/></g><g><g><path fill="none" stroke="none"/><text fill="#000000" stroke="none" font-family="Arial" font-size="13px" font-style="normal" font-weight="bold" text-decoration="undefined" x="1055.871337890625" y="469.5" text-anchor="middle" dominant-baseline="central" transform="matrix(1 0 0 1 -622 -134)">Provider</text></g></g><g><path fill="none" stroke="#000000" paint-order="fill stroke markers" d=" M 191 321 L 238 267" stroke-miterlimit="10" stroke-dasharray=""/></g><g><path fill="#FFFFFF" stroke="none" paint-order="stroke fill markers" d=" M 231.00642860733763 287.85881010929756 L 238 267 L 218.30539216776936 276.804204319303"/></g><g><path fill="none" stroke="#000000" paint-order="fill stroke markers" d=" M 231.00642860733763 287.85881010929756 L 238 267 L 218.30539216776936 276.804204319303 L 231.00642860733763 287.85881010929756" stroke-miterlimit="10" stroke-dasharray=""/></g><g><path fill="none" stroke="#000000" paint-order="fill stroke markers" d=" M 310 329 L 312 267" stroke-miterlimit="10" stroke-dasharray=""/></g><g><path fill="#FFFFFF" stroke="none" paint-order="stroke fill markers" d=" M 319.7593430001508 287.58622345662286 L 312 267 L 302.93002584775945 287.04334225815865"/></g><g><path fill="none" stroke="#000000" paint-order="fill stroke markers" d=" M 319.7593430001508 287.58622345662286 L 312 267 L 302.93002584775945 287.04334225815865 L 319.7593430001508 287.58622345662286" stroke-miterlimit="10" stroke-dasharray=""/></g><g><path fill="none" stroke="#000000" paint-order="fill stroke markers" d=" M 417 321 L 378 267" stroke-miterlimit="10" stroke-dasharray=""/></g><g><path fill="#FFFFFF" stroke="none" paint-order="stroke fill markers" d=" M 396.72543747462623 278.5480730593403 L 378 267 L 383.07516304909575 288.40660458889016"/></g><g><path fill="none" stroke="#000000" paint-order="fill stroke markers" d=" M 396.72543747462623 278.5480730593403 L 378 267 L 383.07516304909575 288.40660458889016 L 396.72543747462623 278.5480730593403" stroke-miterlimit="10" stroke-dasharray=""/></g><g><rect fill="#C0C0C0" stroke="none" x="1375" y="455" width="93.07177734375" height="58" transform="matrix(1 0 0 1 -622 -134)" fill-opacity="0.2"/></g><g><rect fill="#ffffff" stroke="none" x="1368" y="448" width="93.07177734375" height="58" transform="matrix(1 0 0 1 -622 -134)"/></g><g><path fill="none" stroke="#000000" paint-order="fill stroke markers" d=" M 746 314 L 839.07177734375 314 L 839.07177734375 372 L 746 372 L 746 314 Z Z" stroke-miterlimit="10" stroke-dasharray=""/></g><g><path fill="none" stroke="#000000" paint-order="fill stroke markers" d=" M 746 339 L 839.07177734375 339" stroke-miterlimit="10" stroke-dasharray=""/></g><g><path fill="none" stroke="#000000" paint-order="fill stroke markers" d=" M 746 362 L 839.07177734375 362" stroke-miterlimit="10" stroke-dasharray=""/></g><g><g><path fill="none" stroke="none"/><text fill="#000000" stroke="none" font-family="Arial" font-size="13px" font-style="normal" font-weight="bold" text-decoration="undefined" x="1415.035888671875" y="461.5" text-anchor="middle" dominant-baseline="central" transform="matrix(1 0 0 1 -622 -134)">Conversation</text></g></g><g><g><path fill="none" stroke="none"/><text fill="#000000" stroke="none" font-family="Arial" font-size="13px" font-style="normal" font-weight="normal" text-decoration="undefined" x="1373" y="484.5" text-anchor="start" dominant-baseline="central" transform="matrix(1 0 0 1 -622 -134)">-id: int</text></g></g><g><rect fill="#C0C0C0" stroke="none" x="1351" y="151" width="114.27294921875" height="88" transform="matrix(1 0 0 1 -622 -134)" fill-opacity="0.2"/></g><g><rect fill="#ffffff" stroke="none" x="1344" y="144" width="114.27294921875" height="88" transform="matrix(1 0 0 1 -622 -134)"/></g><g><path fill="none" stroke="#000000" paint-order="fill stroke markers" d=" M 722 10 L 836.27294921875 10 L 836.27294921875 98 L 722 98 L 722 10 Z Z" stroke-miterlimit="10" stroke-dasharray=""/></g><g><path fill="none" stroke="#000000" paint-order="fill stroke markers" d=" M 722 35 L 836.27294921875 35" stroke-miterlimit="10" stroke-dasharray=""/></g><g><path fill="none" stroke="#000000" paint-order="fill stroke markers" d=" M 722 88 L 836.27294921875 88" stroke-miterlimit="10" stroke-dasharray=""/></g><g><g><path fill="none" stroke="none"/><text fill="#000000" stroke="none" font-family="Arial" font-size="13px" font-style="normal" font-weight="bold" text-decoration="undefined" x="1401.636474609375" y="157.5" text-anchor="middle" dominant-baseline="central" transform="matrix(1 0 0 1 -622 -134)">Message</text></g></g><g><g><path fill="none" stroke="none"/><text fill="#000000" stroke="none" font-family="Arial" font-size="13px" font-style="normal" font-weight="normal" text-decoration="undefined" x="1349" y="180.5" text-anchor="start" dominant-baseline="central" transform="matrix(1 0 0 1 -622 -134)">-id: int</text></g></g><g><g><path fill="none" stroke="none"/><text fill="#000000" stroke="none" font-family="Arial" font-size="13px" font-style="normal" font-weight="normal" text-decoration="undefined" x="1349" y="195.5" text-anchor="start" dominant-baseline="central" transform="matrix(1 0 0 1 -622 -134)">-content: string</text></g></g><g><g><path fill="none" stroke="none"/><text fill="#000000" stroke="none" font-family="Arial" font-size="13px" font-style="normal" font-weight="normal" text-decoration="undefined" x="1349" y="210.5" text-anchor="start" dominant-baseline="central" transform="matrix(1 0 0 1 -622 -134)">-sentAt: DateTime</text></g></g><g><path fill="none" stroke="#000000" paint-order="fill stroke markers" d=" M 781 99 L 791 313" stroke-miterlimit="10" stroke-dasharray=""/></g><g><rect fill="#ffffff" stroke="none" x="1391" y="253" width="27.1044921875" height="13" transform="matrix(1 0 0 1 -622 -134)"/></g><g><g><path fill="none" stroke="none"/><text fill="#000000" stroke="none" font-family="Arial" font-size="13px" font-style="normal" font-weight="normal" text-decoration="undefined" x="1404.55224609375" y="259.5" text-anchor="middle" dominant-baseline="central" transform="matrix(1 0 0 1 -622 -134)">+0..*</text></g></g><g><rect fill="#ffffff" stroke="none" x="1396" y="425" width="29.275390625" height="13" transform="matrix(1 0 0 1 -622 -134)"/></g><g><g><path fill="none" stroke="none"/><text fill="#000000" stroke="none" font-family="Arial" font-size="13px" font-style="normal" font-weight="normal" text-decoration="undefined" x="1410.6376953125" y="431.5" text-anchor="middle" dominant-baseline="central" transform="matrix(1 0 0 1 -622 -134)">+1..1</text></g></g><g><path fill="none" stroke="#000000" paint-order="fill stroke markers" d=" M 745 327 L 415 213" stroke-miterlimit="10" stroke-dasharray=""/></g><g><rect fill="#ffffff" stroke="none" x="1330" y="447" width="29.275390625" height="13" transform="matrix(1 0 0 1 -622 -134)"/></g><g><g><path fill="none" stroke="none"/><text fill="#000000" stroke="none" font-family="Arial" font-size="13px" font-style="normal" font-weight="normal" text-decoration="undefined" x="1344.6376953125" y="453.5" text-anchor="middle" dominant-baseline="central" transform="matrix(1 0 0 1 -622 -134)">+0..*</text></g></g><g><rect fill="#ffffff" stroke="none" x="1039" y="347" width="29.275390625" height="13" transform="matrix(1 0 0 1 -622 -134)"/></g><g><g><path fill="none" stroke="none"/><text fill="#000000" stroke="none" font-family="Arial" font-size="13px" font-style="normal" font-weight="normal" text-decoration="undefined" x="1053.6376953125" y="353.5" text-anchor="middle" dominant-baseline="central" transform="matrix(1 0 0 1 -622 -134)">+2..2</text></g></g><g><rect fill="#C0C0C0" stroke="none" x="735" y="575" width="126.33349609375" height="161" transform="matrix(1 0 0 1 -622 -134)" fill-opacity="0.2"/></g><g><rect fill="#ffffff" stroke="none" x="728" y="568" width="126.33349609375" height="161" transform="matrix(1 0 0 1 -622 -134)"/></g><g><path fill="none" stroke="#000000" paint-order="fill stroke markers" d=" M 106 434 L 232.33349609375 434 L 232.33349609375 595 L 106 595 L 106 434 Z Z" stroke-miterlimit="10" stroke-dasharray=""/></g><g><path fill="none" stroke="#000000" paint-order="fill stroke markers" d=" M 106 459 L 232.33349609375 459" stroke-miterlimit="10" stroke-dasharray=""/></g><g><path fill="none" stroke="#000000" paint-order="fill stroke markers" d=" M 106 542 L 232.33349609375 542" stroke-miterlimit="10" stroke-dasharray=""/></g><g><g><path fill="none" stroke="none"/><text fill="#000000" stroke="none" font-family="Arial" font-size="13px" font-style="normal" font-weight="bold" text-decoration="undefined" x="791.666748046875" y="581.5" text-anchor="middle" dominant-baseline="central" transform="matrix(1 0 0 1 -622 -134)">Event</text></g></g><g><g><path fill="none" stroke="none"/><text fill="#000000" stroke="none" font-family="Arial" font-size="13px" font-style="normal" font-weight="normal" text-decoration="undefined" x="733" y="604.5" text-anchor="start" dominant-baseline="central" transform="matrix(1 0 0 1 -622 -134)">-id: int</text></g></g><g><g><path fill="none" stroke="none"/><text fill="#000000" stroke="none" font-family="Arial" font-size="13px" font-style="normal" font-weight="normal" text-decoration="undefined" x="733" y="619.5" text-anchor="start" dominant-baseline="central" transform="matrix(1 0 0 1 -622 -134)">-title: string</text></g></g><g><g><path fill="none" stroke="none"/><text fill="#000000" stroke="none" font-family="Arial" font-size="13px" font-style="normal" font-weight="normal" text-decoration="undefined" x="733" y="634.5" text-anchor="start" dominant-baseline="central" transform="matrix(1 0 0 1 -622 -134)">-description: string</text></g></g><g><g><path fill="none" stroke="none"/><text fill="#000000" stroke="none" font-family="Arial" font-size="13px" font-style="normal" font-weight="normal" text-decoration="undefined" x="733" y="649.5" text-anchor="start" dominant-baseline="central" transform="matrix(1 0 0 1 -622 -134)">-date: Date</text></g></g><g><g><path fill="none" stroke="none"/><text fill="#000000" stroke="none" font-family="Arial" font-size="13px" font-style="normal" font-weight="normal" text-decoration="undefined" x="733" y="664.5" text-anchor="start" dominant-baseline="central" transform="matrix(1 0 0 1 -622 -134)">-status: EventStatus</text></g></g><g><g><path fill="none" stroke="none"/><text fill="#000000" stroke="none" font-family="Arial" font-size="13px" font-style="normal" font-weight="normal" text-decoration="undefined" x="733" y="687.5" text-anchor="start" dominant-baseline="central" transform="matrix(1 0 0 1 -622 -134)">+addTask()</text></g></g><g><g><path fill="none" stroke="none"/><text fill="#000000" stroke="none" font-family="Arial" font-size="13px" font-style="normal" font-weight="normal" text-decoration="undefined" x="733" y="702.5" text-anchor="start" dominant-baseline="central" transform="matrix(1 0 0 1 -622 -134)">+addProvider()</text></g></g><g><rect fill="#C0C0C0" stroke="none" x="647" y="791" width="119.82080078125" height="103" transform="matrix(1 0 0 1 -622 -134)" fill-opacity="0.2"/></g><g><rect fill="#ffffff" stroke="none" x="640" y="784" width="119.82080078125" height="103" transform="matrix(1 0 0 1 -622 -134)"/></g><g><path fill="none" stroke="#000000" paint-order="fill stroke markers" d=" M 18 650 L 137.82080078125 650 L 137.82080078125 753 L 18 753 L 18 650 Z Z" stroke-miterlimit="10" stroke-dasharray=""/></g><g><path fill="none" stroke="#000000" paint-order="fill stroke markers" d=" M 18 675 L 137.82080078125 675" stroke-miterlimit="10" stroke-dasharray=""/></g><g><path fill="none" stroke="#000000" paint-order="fill stroke markers" d=" M 18 728 L 137.82080078125 728" stroke-miterlimit="10" stroke-dasharray=""/></g><g><g><path fill="none" stroke="none"/><text fill="#000000" stroke="none" font-family="Arial" font-size="13px" font-style="normal" font-weight="bold" text-decoration="undefined" x="700.410400390625" y="797.5" text-anchor="middle" dominant-baseline="central" transform="matrix(1 0 0 1 -622 -134)">Task</text></g></g><g><g><path fill="none" stroke="none"/><text fill="#000000" stroke="none" font-family="Arial" font-size="13px" font-style="normal" font-weight="normal" text-decoration="undefined" x="645" y="820.5" text-anchor="start" dominant-baseline="central" transform="matrix(1 0 0 1 -622 -134)">-id: int</text></g></g><g><g><path fill="none" stroke="none"/><text fill="#000000" stroke="none" font-family="Arial" font-size="13px" font-style="normal" font-weight="normal" text-decoration="undefined" x="645" y="835.5" text-anchor="start" dominant-baseline="central" transform="matrix(1 0 0 1 -622 -134)">-title: string</text></g></g><g><g><path fill="none" stroke="none"/><text fill="#000000" stroke="none" font-family="Arial" font-size="13px" font-style="normal" font-weight="normal" text-decoration="undefined" x="645" y="850.5" text-anchor="start" dominant-baseline="central" transform="matrix(1 0 0 1 -622 -134)">-status: TaskStatus</text></g></g><g><g><path fill="none" stroke="none"/><text fill="#000000" stroke="none" font-family="Arial" font-size="13px" font-style="normal" font-weight="normal" text-decoration="undefined" x="645" y="873.5" text-anchor="start" dominant-baseline="central" transform="matrix(1 0 0 1 -622 -134)">+markAsDone()</text></g></g><g><rect fill="#C0C0C0" stroke="none" x="871" y="831" width="148.0107421875" height="103" transform="matrix(1 0 0 1 -622 -134)" fill-opacity="0.2"/></g><g><rect fill="#ffffff" stroke="none" x="864" y="824" width="148.0107421875" height="103" transform="matrix(1 0 0 1 -622 -134)"/></g><g><path fill="none" stroke="#000000" paint-order="fill stroke markers" d=" M 242 690 L 390.0107421875 690 L 390.0107421875 793 L 242 793 L 242 690 Z Z" stroke-miterlimit="10" stroke-dasharray=""/></g><g><path fill="none" stroke="#000000" paint-order="fill stroke markers" d=" M 242 715 L 390.0107421875 715" stroke-miterlimit="10" stroke-dasharray=""/></g><g><path fill="none" stroke="#000000" paint-order="fill stroke markers" d=" M 242 768 L 390.0107421875 768" stroke-miterlimit="10" stroke-dasharray=""/></g><g><g><path fill="none" stroke="none"/><text fill="#000000" stroke="none" font-family="Arial" font-size="13px" font-style="normal" font-weight="bold" text-decoration="undefined" x="938.50537109375" y="837.5" text-anchor="middle" dominant-baseline="central" transform="matrix(1 0 0 1 -622 -134)">Budget</text></g></g><g><g><path fill="none" stroke="none"/><text fill="#000000" stroke="none" font-family="Arial" font-size="13px" font-style="normal" font-weight="normal" text-decoration="undefined" x="869" y="860.5" text-anchor="start" dominant-baseline="central" transform="matrix(1 0 0 1 -622 -134)">-id: int</text></g></g><g><g><path fill="none" stroke="none"/><text fill="#000000" stroke="none" font-family="Arial" font-size="13px" font-style="normal" font-weight="normal" text-decoration="undefined" x="869" y="875.5" text-anchor="start" dominant-baseline="central" transform="matrix(1 0 0 1 -622 -134)">-totalAmount: float</text></g></g><g><g><path fill="none" stroke="none"/><text fill="#000000" stroke="none" font-family="Arial" font-size="13px" font-style="normal" font-weight="normal" text-decoration="undefined" x="869" y="890.5" text-anchor="start" dominant-baseline="central" transform="matrix(1 0 0 1 -622 -134)">-remainingAmount: float</text></g></g><g><g><path fill="none" stroke="none"/><text fill="#000000" stroke="none" font-family="Arial" font-size="13px" font-style="normal" font-weight="normal" text-decoration="undefined" x="869" y="913.5" text-anchor="start" dominant-baseline="central" transform="matrix(1 0 0 1 -622 -134)">+adjustBudget()</text></g></g><g><rect fill="#C0C0C0" stroke="none" x="1023" y="975" width="116.208984375" height="88" transform="matrix(1 0 0 1 -622 -134)" fill-opacity="0.2"/></g><g><rect fill="#ffffff" stroke="none" x="1016" y="968" width="116.208984375" height="88" transform="matrix(1 0 0 1 -622 -134)"/></g><g><path fill="none" stroke="#000000" paint-order="fill stroke markers" d=" M 394 834 L 510.208984375 834 L 510.208984375 922 L 394 922 L 394 834 Z Z" stroke-miterlimit="10" stroke-dasharray=""/></g><g><path fill="none" stroke="#000000" paint-order="fill stroke markers" d=" M 394 859 L 510.208984375 859" stroke-miterlimit="10" stroke-dasharray=""/></g><g><path fill="none" stroke="#000000" paint-order="fill stroke markers" d=" M 394 912 L 510.208984375 912" stroke-miterlimit="10" stroke-dasharray=""/></g><g><g><path fill="none" stroke="none"/><text fill="#000000" stroke="none" font-family="Arial" font-size="13px" font-style="normal" font-weight="bold" text-decoration="undefined" x="1074.6044921875" y="981.5" text-anchor="middle" dominant-baseline="central" transform="matrix(1 0 0 1 -622 -134)">Expense</text></g></g><g><g><path fill="none" stroke="none"/><text fill="#000000" stroke="none" font-family="Arial" font-size="13px" font-style="normal" font-weight="normal" text-decoration="undefined" x="1021" y="1004.5" text-anchor="start" dominant-baseline="central" transform="matrix(1 0 0 1 -622 -134)">-id: int</text></g></g><g><g><path fill="none" stroke="none"/><text fill="#000000" stroke="none" font-family="Arial" font-size="13px" font-style="normal" font-weight="normal" text-decoration="undefined" x="1021" y="1019.5" text-anchor="start" dominant-baseline="central" transform="matrix(1 0 0 1 -622 -134)">-amount: float</text></g></g><g><g><path fill="none" stroke="none"/><text fill="#000000" stroke="none" font-family="Arial" font-size="13px" font-style="normal" font-weight="normal" text-decoration="undefined" x="1021" y="1034.5" text-anchor="start" dominant-baseline="central" transform="matrix(1 0 0 1 -622 -134)">-description: string</text></g></g><g><path fill="none" stroke="#000000" paint-order="fill stroke markers" d=" M 233 440 L 288 376" stroke-miterlimit="10" stroke-dasharray=""/></g><g><rect fill="#ffffff" stroke="none" x="848" y="552" width="27.1044921875" height="13" transform="matrix(1 0 0 1 -622 -134)"/></g><g><g><path fill="none" stroke="none"/><text fill="#000000" stroke="none" font-family="Arial" font-size="13px" font-style="normal" font-weight="normal" text-decoration="undefined" x="861.55224609375" y="558.5" text-anchor="middle" dominant-baseline="central" transform="matrix(1 0 0 1 -622 -134)">+0..*</text></g></g><g><rect fill="#ffffff" stroke="none" x="880" y="513" width="29.275390625" height="13" transform="matrix(1 0 0 1 -622 -134)"/></g><g><g><path fill="none" stroke="none"/><text fill="#000000" stroke="none" font-family="Arial" font-size="13px" font-style="normal" font-weight="normal" text-decoration="undefined" x="894.6376953125" y="519.5" text-anchor="middle" dominant-baseline="central" transform="matrix(1 0 0 1 -622 -134)">+1..1</text></g></g><g><path fill="none" stroke="#000000" paint-order="fill stroke markers" d=" M 103 649 L 129 596" stroke-miterlimit="10" stroke-dasharray=""/></g><g><rect fill="#ffffff" stroke="none" x="712" y="768" width="27.1044921875" height="13" transform="matrix(1 0 0 1 -622 -134)"/></g><g><g><path fill="none" stroke="none"/><text fill="#000000" stroke="none" font-family="Arial" font-size="13px" font-style="normal" font-weight="normal" text-decoration="undefined" x="725.55224609375" y="774.5" text-anchor="middle" dominant-baseline="central" transform="matrix(1 0 0 1 -622 -134)">+0..*</text></g></g><g><rect fill="#ffffff" stroke="none" x="728" y="728" width="29.275390625" height="13" transform="matrix(1 0 0 1 -622 -134)"/></g><g><g><path fill="none" stroke="none"/><text fill="#000000" stroke="none" font-family="Arial" font-size="13px" font-style="normal" font-weight="normal" text-decoration="undefined" x="742.6376953125" y="734.5" text-anchor="middle" dominant-baseline="central" transform="matrix(1 0 0 1 -622 -134)">+1..1</text></g></g><g><path fill="none" stroke="#000000" paint-order="fill stroke markers" d=" M 282 689 L 222 596" stroke-miterlimit="10" stroke-dasharray=""/></g><g><rect fill="#ffffff" stroke="none" x="880" y="802" width="29.275390625" height="13" transform="matrix(1 0 0 1 -622 -134)"/></g><g><g><path fill="none" stroke="none"/><text fill="#000000" stroke="none" font-family="Arial" font-size="13px" font-style="normal" font-weight="normal" text-decoration="undefined" x="894.6376953125" y="808.5" text-anchor="middle" dominant-baseline="central" transform="matrix(1 0 0 1 -622 -134)">+1..1</text></g></g><g><rect fill="#ffffff" stroke="none" x="832" y="735" width="29.275390625" height="13" transform="matrix(1 0 0 1 -622 -134)"/></g><g><g><path fill="none" stroke="none"/><text fill="#000000" stroke="none" font-family="Arial" font-size="13px" font-style="normal" font-weight="normal" text-decoration="undefined" x="846.6376953125" y="741.5" text-anchor="middle" dominant-baseline="central" transform="matrix(1 0 0 1 -622 -134)">+1..1</text></g></g><g><path fill="none" stroke="#000000" paint-order="fill stroke markers" d=" M 407 833 L 369 794" stroke-miterlimit="10" stroke-dasharray=""/></g><g><rect fill="#ffffff" stroke="none" x="1008" y="951" width="27.1044921875" height="13" transform="matrix(1 0 0 1 -622 -134)"/></g><g><g><path fill="none" stroke="none"/><text fill="#000000" stroke="none" font-family="Arial" font-size="13px" font-style="normal" font-weight="normal" text-decoration="undefined" x="1021.55224609375" y="957.5" text-anchor="middle" dominant-baseline="central" transform="matrix(1 0 0 1 -622 -134)">+0..*</text></g></g><g><rect fill="#ffffff" stroke="none" x="984" y="927" width="29.275390625" height="13" transform="matrix(1 0 0 1 -622 -134)"/></g><g><g><path fill="none" stroke="none"/><text fill="#000000" stroke="none" font-family="Arial" font-size="13px" font-style="normal" font-weight="normal" text-decoration="undefined" x="998.6376953125" y="933.5" text-anchor="middle" dominant-baseline="central" transform="matrix(1 0 0 1 -622 -134)">+1..1</text></g></g><g><rect fill="#C0C0C0" stroke="none" x="1167" y="615" width="116.208984375" height="103" transform="matrix(1 0 0 1 -622 -134)" fill-opacity="0.2"/></g><g><rect fill="#ffffff" stroke="none" x="1160" y="608" width="116.208984375" height="103" transform="matrix(1 0 0 1 -622 -134)"/></g><g><path fill="none" stroke="#000000" paint-order="fill stroke markers" d=" M 538 474 L 654.208984375 474 L 654.208984375 577 L 538 577 L 538 474 Z Z" stroke-miterlimit="10" stroke-dasharray=""/></g><g><path fill="none" stroke="#000000" paint-order="fill stroke markers" d=" M 538 499 L 654.208984375 499" stroke-miterlimit="10" stroke-dasharray=""/></g><g><path fill="none" stroke="#000000" paint-order="fill stroke markers" d=" M 538 567 L 654.208984375 567" stroke-miterlimit="10" stroke-dasharray=""/></g><g><g><path fill="none" stroke="none"/><text fill="#000000" stroke="none" font-family="Arial" font-size="13px" font-style="normal" font-weight="bold" text-decoration="undefined" x="1218.6044921875" y="621.5" text-anchor="middle" dominant-baseline="central" transform="matrix(1 0 0 1 -622 -134)">Service</text></g></g><g><g><path fill="none" stroke="none"/><text fill="#000000" stroke="none" font-family="Arial" font-size="13px" font-style="normal" font-weight="normal" text-decoration="undefined" x="1165" y="644.5" text-anchor="start" dominant-baseline="central" transform="matrix(1 0 0 1 -622 -134)">-id: int</text></g></g><g><g><path fill="none" stroke="none"/><text fill="#000000" stroke="none" font-family="Arial" font-size="13px" font-style="normal" font-weight="normal" text-decoration="undefined" x="1165" y="659.5" text-anchor="start" dominant-baseline="central" transform="matrix(1 0 0 1 -622 -134)">-title: string</text></g></g><g><g><path fill="none" stroke="none"/><text fill="#000000" stroke="none" font-family="Arial" font-size="13px" font-style="normal" font-weight="normal" text-decoration="undefined" x="1165" y="674.5" text-anchor="start" dominant-baseline="central" transform="matrix(1 0 0 1 -622 -134)">-price: float</text></g></g><g><g><path fill="none" stroke="none"/><text fill="#000000" stroke="none" font-family="Arial" font-size="13px" font-style="normal" font-weight="normal" text-decoration="undefined" x="1165" y="689.5" text-anchor="start" dominant-baseline="central" transform="matrix(1 0 0 1 -622 -134)">-description: string</text></g></g><g><rect fill="#C0C0C0" stroke="none" x="1015" y="631" width="106.8017578125" height="88" transform="matrix(1 0 0 1 -622 -134)" fill-opacity="0.2"/></g><g><rect fill="#ffffff" stroke="none" x="1008" y="624" width="106.8017578125" height="88" transform="matrix(1 0 0 1 -622 -134)"/></g><g><path fill="none" stroke="#000000" paint-order="fill stroke markers" d=" M 386 490 L 492.8017578125 490 L 492.8017578125 578 L 386 578 L 386 490 Z Z" stroke-miterlimit="10" stroke-dasharray=""/></g><g><path fill="none" stroke="#000000" paint-order="fill stroke markers" d=" M 386 515 L 492.8017578125 515" stroke-miterlimit="10" stroke-dasharray=""/></g><g><path fill="none" stroke="#000000" paint-order="fill stroke markers" d=" M 386 568 L 492.8017578125 568" stroke-miterlimit="10" stroke-dasharray=""/></g><g><g><path fill="none" stroke="none"/><text fill="#000000" stroke="none" font-family="Arial" font-size="13px" font-style="normal" font-weight="bold" text-decoration="undefined" x="1061.90087890625" y="637.5" text-anchor="middle" dominant-baseline="central" transform="matrix(1 0 0 1 -622 -134)">Review</text></g></g><g><g><path fill="none" stroke="none"/><text fill="#000000" stroke="none" font-family="Arial" font-size="13px" font-style="normal" font-weight="normal" text-decoration="undefined" x="1013" y="660.5" text-anchor="start" dominant-baseline="central" transform="matrix(1 0 0 1 -622 -134)">-id: int</text></g></g><g><g><path fill="none" stroke="none"/><text fill="#000000" stroke="none" font-family="Arial" font-size="13px" font-style="normal" font-weight="normal" text-decoration="undefined" x="1013" y="675.5" text-anchor="start" dominant-baseline="central" transform="matrix(1 0 0 1 -622 -134)">-rating: int</text></g></g><g><g><path fill="none" stroke="none"/><text fill="#000000" stroke="none" font-family="Arial" font-size="13px" font-style="normal" font-weight="normal" text-decoration="undefined" x="1013" y="690.5" text-anchor="start" dominant-baseline="central" transform="matrix(1 0 0 1 -622 -134)">-comment: string</text></g></g><g><rect fill="#C0C0C0" stroke="none" x="1175" y="791" width="88.025390625" height="73" transform="matrix(1 0 0 1 -622 -134)" fill-opacity="0.2"/></g><g><rect fill="#ffffff" stroke="none" x="1168" y="784" width="88.025390625" height="73" transform="matrix(1 0 0 1 -622 -134)"/></g><g><path fill="none" stroke="#000000" paint-order="fill stroke markers" d=" M 546 650 L 634.025390625 650 L 634.025390625 723 L 546 723 L 546 650 Z Z" stroke-miterlimit="10" stroke-dasharray=""/></g><g><path fill="none" stroke="#000000" paint-order="fill stroke markers" d=" M 546 675 L 634.025390625 675" stroke-miterlimit="10" stroke-dasharray=""/></g><g><path fill="none" stroke="#000000" paint-order="fill stroke markers" d=" M 546 713 L 634.025390625 713" stroke-miterlimit="10" stroke-dasharray=""/></g><g><g><path fill="none" stroke="none"/><text fill="#000000" stroke="none" font-family="Arial" font-size="13px" font-style="normal" font-weight="bold" text-decoration="undefined" x="1212.5126953125" y="797.5" text-anchor="middle" dominant-baseline="central" transform="matrix(1 0 0 1 -622 -134)">Booking</text></g></g><g><g><path fill="none" stroke="none"/><text fill="#000000" stroke="none" font-family="Arial" font-size="13px" font-style="normal" font-weight="normal" text-decoration="undefined" x="1173" y="820.5" text-anchor="start" dominant-baseline="central" transform="matrix(1 0 0 1 -622 -134)">-id: int</text></g></g><g><g><path fill="none" stroke="none"/><text fill="#000000" stroke="none" font-family="Arial" font-size="13px" font-style="normal" font-weight="normal" text-decoration="undefined" x="1173" y="835.5" text-anchor="start" dominant-baseline="central" transform="matrix(1 0 0 1 -622 -134)">-status: string</text></g></g><g><path fill="none" stroke="#000000" paint-order="fill stroke markers" d=" M 407 489 L 326 376" stroke-miterlimit="10" stroke-dasharray=""/></g><g><rect fill="#ffffff" stroke="none" x="1008" y="603" width="27.1044921875" height="13" transform="matrix(1 0 0 1 -622 -134)"/></g><g><g><path fill="none" stroke="none"/><text fill="#000000" stroke="none" font-family="Arial" font-size="13px" font-style="normal" font-weight="normal" text-decoration="undefined" x="1021.55224609375" y="609.5" text-anchor="middle" dominant-baseline="central" transform="matrix(1 0 0 1 -622 -134)">+0..*</text></g></g><g><rect fill="#ffffff" stroke="none" x="944" y="511" width="29.275390625" height="13" transform="matrix(1 0 0 1 -622 -134)"/></g><g><g><path fill="none" stroke="none"/><text fill="#000000" stroke="none" font-family="Arial" font-size="13px" font-style="normal" font-weight="normal" text-decoration="undefined" x="958.6376953125" y="517.5" text-anchor="middle" dominant-baseline="central" transform="matrix(1 0 0 1 -622 -134)">+1..1</text></g></g><g><path fill="none" stroke="#000000" paint-order="fill stroke markers" d=" M 438 489 L 434 368" stroke-miterlimit="10" stroke-dasharray=""/></g><g><rect fill="#ffffff" stroke="none" x="1048" y="608" width="27.1044921875" height="13" transform="matrix(1 0 0 1 -622 -134)"/></g><g><g><path fill="none" stroke="none"/><text fill="#000000" stroke="none" font-family="Arial" font-size="13px" font-style="normal" font-weight="normal" text-decoration="undefined" x="1061.55224609375" y="614.5" text-anchor="middle" dominant-baseline="central" transform="matrix(1 0 0 1 -622 -134)">+0..*</text></g></g><g><rect fill="#ffffff" stroke="none" x="1040" y="504" width="29.275390625" height="13" transform="matrix(1 0 0 1 -622 -134)"/></g><g><g><path fill="none" stroke="none"/><text fill="#000000" stroke="none" font-family="Arial" font-size="13px" font-style="normal" font-weight="normal" text-decoration="undefined" x="1054.6376953125" y="510.5" text-anchor="middle" dominant-baseline="central" transform="matrix(1 0 0 1 -622 -134)">+1..1</text></g></g><g><path fill="none" stroke="#000000" paint-order="fill stroke markers" d=" M 558 473 L 506 402 L 463 368" stroke-miterlimit="10" stroke-dasharray=""/></g><g><rect fill="#ffffff" stroke="none" x="1159" y="592" width="27.1044921875" height="13" transform="matrix(1 0 0 1 -622 -134)"/></g><g><g><path fill="none" stroke="none"/><text fill="#000000" stroke="none" font-family="Arial" font-size="13px" font-style="normal" font-weight="normal" text-decoration="undefined" x="1172.55224609375" y="598.5" text-anchor="middle" dominant-baseline="central" transform="matrix(1 0 0 1 -622 -134)">+0..*</text></g></g><g><rect fill="#ffffff" stroke="none" x="1076" y="502" width="29.275390625" height="13" transform="matrix(1 0 0 1 -622 -134)"/></g><g><g><path fill="none" stroke="none"/><text fill="#000000" stroke="none" font-family="Arial" font-size="13px" font-style="normal" font-weight="normal" text-decoration="undefined" x="1090.6376953125" y="508.5" text-anchor="middle" dominant-baseline="central" transform="matrix(1 0 0 1 -622 -134)">+1..1</text></g></g><g><path fill="none" stroke="#000000" paint-order="fill stroke markers" d=" M 633 649 Q 898 418 466 349" stroke-miterlimit="10" stroke-dasharray=""/></g><g><rect fill="#ffffff" stroke="none" x="1251" y="767" width="27.1044921875" height="13" transform="matrix(1 0 0 1 -622 -134)"/></g><g><g><path fill="none" stroke="none"/><text fill="#000000" stroke="none" font-family="Arial" font-size="13px" font-style="normal" font-weight="normal" text-decoration="undefined" x="1264.55224609375" y="773.5" text-anchor="middle" dominant-baseline="central" transform="matrix(1 0 0 1 -622 -134)">+0..*</text></g></g><g><rect fill="#ffffff" stroke="none" x="1089" y="482" width="29.275390625" height="13" transform="matrix(1 0 0 1 -622 -134)"/></g><g><g><path fill="none" stroke="none"/><text fill="#000000" stroke="none" font-family="Arial" font-size="13px" font-style="normal" font-weight="normal" text-decoration="undefined" x="1103.6376953125" y="488.5" text-anchor="middle" dominant-baseline="central" transform="matrix(1 0 0 1 -622 -134)">+1..1</text></g></g><g><path fill="none" stroke="#000000" paint-order="fill stroke markers" d=" M 545 668 L 233 540" stroke-miterlimit="10" stroke-dasharray=""/></g><g><rect fill="#ffffff" stroke="none" x="1128" y="783" width="27.1044921875" height="13" transform="matrix(1 0 0 1 -622 -134)"/></g><g><g><path fill="none" stroke="none"/><text fill="#000000" stroke="none" font-family="Arial" font-size="13px" font-style="normal" font-weight="normal" text-decoration="undefined" x="1141.55224609375" y="789.5" text-anchor="middle" dominant-baseline="central" transform="matrix(1 0 0 1 -622 -134)">+0..*</text></g></g><g><rect fill="#ffffff" stroke="none" x="859" y="671" width="29.275390625" height="13" transform="matrix(1 0 0 1 -622 -134)"/></g><g><g><path fill="none" stroke="none"/><text fill="#000000" stroke="none" font-family="Arial" font-size="13px" font-style="normal" font-weight="normal" text-decoration="undefined" x="873.6376953125" y="677.5" text-anchor="middle" dominant-baseline="central" transform="matrix(1 0 0 1 -622 -134)">+1..1</text></g></g><g><rect fill="#C0C0C0" stroke="none" x="639" y="263" width="89.12353515625" height="73" transform="matrix(1 0 0 1 -622 -134)" fill-opacity="0.2"/></g><g><rect fill="#ffffff" stroke="none" x="632" y="256" width="89.12353515625" height="73" transform="matrix(1 0 0 1 -622 -134)"/></g><g><path fill="none" stroke="#000000" paint-order="fill stroke markers" d=" M 10 122 L 99.12353515625 122 L 99.12353515625 195 L 10 195 L 10 122 Z Z" stroke-miterlimit="10" stroke-dasharray=""/></g><g><path fill="none" stroke="#000000" paint-order="fill stroke markers" d=" M 10 147 L 99.12353515625 147" stroke-miterlimit="10" stroke-dasharray=""/></g><g><path fill="none" stroke="#000000" paint-order="fill stroke markers" d=" M 10 185 L 99.12353515625 185" stroke-miterlimit="10" stroke-dasharray=""/></g><g><g><path fill="none" stroke="none"/><text fill="#000000" stroke="none" font-family="Arial" font-size="13px" font-style="normal" font-weight="bold" text-decoration="undefined" x="677.061767578125" y="269.5" text-anchor="middle" dominant-baseline="central" transform="matrix(1 0 0 1 -622 -134)">role</text></g></g><g><g><path fill="none" stroke="none"/><text fill="#000000" stroke="none" font-family="Arial" font-size="13px" font-style="normal" font-weight="normal" text-decoration="undefined" x="637" y="292.5" text-anchor="start" dominant-baseline="central" transform="matrix(1 0 0 1 -622 -134)">+id: int</text></g></g><g><g><path fill="none" stroke="none"/><text fill="#000000" stroke="none" font-family="Arial" font-size="13px" font-style="normal" font-weight="normal" text-decoration="undefined" x="637" y="307.5" text-anchor="start" dominant-baseline="central" transform="matrix(1 0 0 1 -622 -134)">+name: string</text></g></g><g><path fill="none" stroke="#000000" paint-order="fill stroke markers" d=" M 217 170 L 100 162" stroke-miterlimit="10" stroke-dasharray=""/></g><g><rect fill="#ffffff" stroke="none" x="808" y="295" width="29.275390625" height="13" transform="matrix(1 0 0 1 -622 -134)"/></g><g><g><path fill="none" stroke="none"/><text fill="#000000" stroke="none" font-family="Arial" font-size="13px" font-style="normal" font-weight="normal" text-decoration="undefined" x="822.6376953125" y="301.5" text-anchor="middle" dominant-baseline="central" transform="matrix(1 0 0 1 -622 -134)">+1..1</text></g></g><g><rect fill="#ffffff" stroke="none" x="720" y="288" width="27.1044921875" height="13" transform="matrix(1 0 0 1 -622 -134)"/></g><g><g><path fill="none" stroke="none"/><text fill="#000000" stroke="none" font-family="Arial" font-size="13px" font-style="normal" font-weight="normal" text-decoration="undefined" x="733.55224609375" y="294.5" text-anchor="middle" dominant-baseline="central" transform="matrix(1 0 0 1 -622 -134)">+0..*</text></g></g><g><path fill="none" stroke="#000000" paint-order="fill stroke markers" d=" M 315 90 L 315 70 L 482 70 L 482 178 L 414 178" stroke-miterlimit="10" stroke-dasharray=""/></g><g><rect fill="#ffffff" stroke="none" x="1040" y="196" width="42.275390625" height="13" transform="matrix(1 0 0 1 -622 -134)"/></g><g><g><path fill="none" stroke="none"/><text fill="#000000" stroke="none" font-family="Arial" font-size="13px" font-style="normal" font-weight="normal" text-decoration="undefined" x="1061.1376953125" y="202.5" text-anchor="middle" dominant-baseline="central" transform="matrix(1 0 0 1 -622 -134)">+talk to</text></g></g><g><rect fill="#ffffff" stroke="none" x="904" y="207" width="56" height="13" transform="matrix(1 0 0 1 -622 -134)"/></g><g><g><path fill="none" stroke="none"/><text fill="#000000" stroke="none" font-family="Arial" font-size="13px" font-style="normal" font-weight="normal" text-decoration="undefined" x="932" y="213.5" text-anchor="middle" dominant-baseline="central" transform="matrix(1 0 0 1 -622 -134)">+1..1</text></g></g><g><rect fill="#ffffff" stroke="none" x="1040" y="304" width="27.1044921875" height="13" transform="matrix(1 0 0 1 -622 -134)"/></g><g><g><path fill="none" stroke="none"/><text fill="#000000" stroke="none" font-family="Arial" font-size="13px" font-style="normal" font-weight="normal" text-decoration="undefined" x="1053.55224609375" y="310.5" text-anchor="middle" dominant-baseline="central" transform="matrix(1 0 0 1 -622 -134)">+0..*</text></g></g></g></svg>